<?xml version="1.0" encoding="utf-8"?>
<!-- Generator: Adobe Illustrator 22.0.1, SVG Export Plug-In . SVG Version: 6.00 Build 0)  -->
<svg version="1.1" id="Layer_1" xmlns="http://www.w3.org/2000/svg" xmlns:xlink="http://www.w3.org/1999/xlink" x="0px" y="0px"
	 viewBox="0 0 150.9 150.9" style="enable-background:new 0 0 150.9 150.9;" xml:space="preserve">
<style type="text/css">
	.st0{clip-path:url(#SVGID_4_);}
	.st1{fill:url(#SVGID_5_);}
	.st2{fill:url(#SVGID_6_);}
</style>
<title>circle</title>
<g id="Layer_2_1_">
	
		<image style="overflow:visible;opacity:0.3;" width="146" height="144" xlink:href="DFED41C.png"  transform="matrix(1 0 0 1 5.9972 12.6572)">
	</image>
	<g>
		<g>
			<g id="Layer_1-2_10_">
				<g>
					<defs>
						<circle id="SVGID_1_" cx="73.9" cy="80.8" r="45.2"/>
					</defs>
					<clipPath id="SVGID_2_">
						<use xlink:href="#SVGID_1_"  style="overflow:visible;"/>
					</clipPath>
				</g>
			</g>
		</g>
		<g>
			<g id="Layer_1-2_9_">
				<g>
					<defs>
						<circle id="SVGID_3_" cx="73.9" cy="80.8" r="45.2"/>
					</defs>
					<clipPath id="SVGID_4_">
						<use xlink:href="#SVGID_3_"  style="overflow:visible;"/>
					</clipPath>
					<g class="st0">
						
							<linearGradient id="SVGID_5_" gradientUnits="userSpaceOnUse" x1="62.5796" y1="84.6363" x2="124.1986" y2="12.7524" gradientTransform="matrix(1 0 0 -1 0 152.1667)">
							<stop  offset="0" style="stop-color:#57CAFF"/>
							<stop  offset="1" style="stop-color:#0A7BAD"/>
						</linearGradient>
						<circle class="st1" cx="73.9" cy="80.8" r="45.2"/>
						
							<linearGradient id="SVGID_6_" gradientUnits="userSpaceOnUse" x1="56.5849" y1="26.172" x2="144.731" y2="26.172" gradientTransform="matrix(0.85 -0.44 -0.46 -0.89 11.2643 170.7838)">
							<stop  offset="0" style="stop-color:#C028E5"/>
							<stop  offset="1" style="stop-color:#0A7BAD"/>
						</linearGradient>
						<path class="st2" d="M62.5,107.1l-1.9-14.3l10.8,7.8l-3.5-13.6l13.8,12.9l-5.5-13.2c0,0,15.4,10.6,16,10.3S92,79.9,92,78.8
							s19.6,15.5,19.6,15.5s-1.3-18.6,2.5-15c3.8,3.6,25.3,15.7,7.7,27.7s-49.8,29.8-61.6,26s-16.8-19.2-16.8-19.2l3.4-11.6
							L62.5,107.1z"/>
					</g>
				</g>
			</g>
		</g>
		<g>
			<g id="Layer_1-2_8_">
				<g>
					<defs>
						<circle id="SVGID_7_" cx="73.9" cy="80.8" r="45.2"/>
					</defs>
					<clipPath id="SVGID_8_">
						<use xlink:href="#SVGID_7_"  style="overflow:visible;"/>
					</clipPath>
				</g>
			</g>
		</g>
	</g>
</g>
</svg>
