<?xml version="1.0" encoding="utf-8"?>
<!-- Generator: Adobe Illustrator 22.0.1, SVG Export Plug-In . SVG Version: 6.00 Build 0)  -->
<svg version="1.1" id="Layer_1" xmlns="http://www.w3.org/2000/svg" xmlns:xlink="http://www.w3.org/1999/xlink" x="0px" y="0px"
	 viewBox="0 0 516 512" style="enable-background:new 0 0 516 512;" xml:space="preserve">
<style type="text/css">
	.st0{fill:#C8232C;}
	.st1{fill:#FFFFFF;}
</style>
<circle class="st0" cx="262" cy="257" r="202"/>
<path class="st1" d="M267.9,136.4c-49.7,0-98.6,33-98.6,86.7c0,34.1,19.2,53.4,30.8,53.4c4.8,0,7.5-13.3,7.5-17.1
	c0-4.4-11.5-14.1-11.5-32.8c0-38.9,29.6-66.4,67.9-66.4c32.9,0,57.3,18.7,57.3,53c0,25.6-10.3,73.9-43.7,73.9
	c-12.1,0-22.4-8.7-22.4-21.2c0-18.3,12.8-36,12.8-54.8c0-32-45.4-26.2-45.4,12.5c0,8.1,1.1,17.1,4.7,24.5
	c-6.7,28.7-20.3,71.6-20.3,101.1c0,9.1,1.3,18.2,2.2,27.3c1.6,1.9,0.8,1.6,3.3,0.7c24.4-33.4,23.5-39.9,34.5-83.6
	c6,11.4,21.3,17.4,33.5,17.4c51.4,0,74.5-50,74.5-95.2C354.9,167.7,313.4,136.4,267.9,136.4z"/>
</svg>
