<?xml version="1.0" encoding="utf-8"?>
<!-- Generator: Adobe Illustrator 22.0.1, SVG Export Plug-In . SVG Version: 6.00 Build 0)  -->
<svg version="1.1" id="Layer_1" xmlns="http://www.w3.org/2000/svg" xmlns:xlink="http://www.w3.org/1999/xlink" x="0px" y="0px"
	 viewBox="0 0 476 512" style="enable-background:new 0 0 476 512;" xml:space="preserve">
<style type="text/css">
	.st0{fill:none;stroke:#333333;stroke-width:12.2838;stroke-miterlimit:10;}
	.st1{fill:#333333;}
</style>
<circle class="st0" cx="242" cy="257" r="202"/>
<path class="st1" d="M248.8,116.4c-57.8,0-115,38.6-115,100.9c0,39.7,22.3,62.2,35.8,62.2c5.6,0,8.8-15.6,8.8-20
	c0-5.2-13.4-16.4-13.4-38.2c0-45.3,34.5-77.4,79.1-77.4c38.4,0,66.8,21.8,66.8,61.9c0,29.9-12,86.1-50.9,86.1c-14,0-26-10.1-26-24.7
	c0-21.3,14.9-41.9,14.9-63.9c0-37.3-52.9-30.5-52.9,14.5c0,9.5,1.2,20,5.4,28.6c-7.8,33.5-23.7,83.4-23.7,117.9
	c0,10.7,1.5,21.1,2.5,31.8c1.9,2.1,1,1.9,3.9,0.8c28.4-38.9,27.4-46.5,40.2-97.4c6.9,13.2,24.9,20.3,39.1,20.3
	c59.9,0,86.7-58.3,86.7-110.9C350.2,152.9,301.9,116.4,248.8,116.4z"/>
</svg>
