<?xml version="1.0" encoding="utf-8"?>
<!-- Generator: Adobe Illustrator 22.0.1, SVG Export Plug-In . SVG Version: 6.00 Build 0)  -->
<svg version="1.1" id="Layer_1" xmlns="http://www.w3.org/2000/svg" xmlns:xlink="http://www.w3.org/1999/xlink" x="0px" y="0px"
	 viewBox="0 0 512 512" style="enable-background:new 0 0 512 512;" xml:space="preserve">
<style type="text/css">
	.st0{fill:none;stroke:#333333;stroke-width:12;stroke-miterlimit:10;}
	.st1{fill:#333333;}
</style>
<circle class="st0" cx="247.5" cy="248.5" r="202"/>
<path class="st1" d="M365.6,203.1c0.2,2.4,0.2,4.8,0.2,7.3c0,73.7-56.1,158.6-158.6,158.6c-31.6,0-60.9-9.1-85.6-25
	c4.5,0.5,8.8,0.7,13.5,0.7c26.1,0,50.1-8.8,69.2-23.8c-24.5-0.5-45.1-16.6-52.1-38.7c3.5,0.5,6.9,0.9,10.5,0.9c5,0,10-0.7,14.7-1.9
	c-25.5-5.2-44.7-27.6-44.7-54.7v-0.7c7.4,4.1,16.1,6.7,25.2,7.1c-15-10-24.9-27.1-24.9-46.4c0-10.4,2.8-19.9,7.6-28.1
	c27.4,33.8,68.7,55.9,115,58.3c-0.9-4.1-1.4-8.5-1.4-12.8c0-30.7,24.9-55.8,55.8-55.8c16.1,0,30.6,6.7,40.7,17.6
	c12.6-2.4,24.7-7.1,35.4-13.5c-4.1,12.9-12.9,23.8-24.5,30.7c11.2-1.2,22.1-4.3,32.1-8.6C385.9,185.3,376.4,195.1,365.6,203.1
	L365.6,203.1z"/>
</svg>
