<?xml version="1.0" encoding="utf-8"?>
<!-- Generator: Adobe Illustrator 22.0.1, SVG Export Plug-In . SVG Version: 6.00 Build 0)  -->
<svg version="1.1" id="Layer_1" xmlns="http://www.w3.org/2000/svg" xmlns:xlink="http://www.w3.org/1999/xlink" x="0px" y="0px"
	 viewBox="0 0 512 512" style="enable-background:new 0 0 512 512;" xml:space="preserve">
<style type="text/css">
	.st0{fill:#1DA1F2;}
	.st1{fill:#FFFFFF;}
</style>
<circle class="st0" cx="247.5" cy="248.5" r="202"/>
<path class="st1" d="M332,205.2c0.2,1.9,0.2,3.8,0.2,5.7c0,57.6-43.9,124-124,124c-24.7,0-47.6-7.1-66.9-19.5
	c3.5,0.4,6.9,0.5,10.6,0.5c20.4,0,39.2-6.9,54.1-18.6c-19.2-0.4-35.3-13-40.7-30.3c2.7,0.4,5.4,0.7,8.2,0.7c3.9,0,7.8-0.5,11.5-1.5
	c-19.9-4.1-34.9-21.6-34.9-42.8v-0.5c5.8,3.2,12.6,5.2,19.7,5.6c-11.7-7.8-19.5-21.2-19.5-36.3c0-8.1,2.2-15.6,5.9-22
	c21.4,26.4,53.7,43.7,89.9,45.6c-0.7-3.2-1.1-6.6-1.1-10c0-24,19.5-43.6,43.6-43.6c12.6,0,23.9,5.2,31.8,13.8
	c9.8-1.9,19.3-5.6,27.7-10.6c-3.2,10.1-10.1,18.6-19.2,24c8.8-0.9,17.3-3.4,25.1-6.7C347.9,191.3,340.5,199,332,205.2L332,205.2z"/>
</svg>
