<svg xmlns="http://www.w3.org/2000/svg" height="512pt" version="1.1" viewBox="0 -31 512.00052 512" width="512pt">
<g id="surface1">
<path d="M 407.265625 120.078125 L 167.109375 120.078125 C 158.703125 120.078125 152.097656 126.679688 152.097656 135.085938 L 152.097656 375.242188 C 152.097656 383.648438 158.703125 390.253906 167.109375 390.253906 L 407.265625 390.253906 C 415.671875 390.253906 422.273438 383.648438 422.273438 375.242188 L 422.273438 135.085938 C 422.273438 126.679688 415.671875 120.078125 407.265625 120.078125 Z M 407.265625 120.078125 " style=" stroke:none;fill-rule:nonzero;fill:rgb(100%,47.058824%,8.627451%);fill-opacity:1;" />
<path d="M 422.273438 135.085938 L 422.273438 375.242188 C 422.273438 383.648438 415.671875 390.253906 407.265625 390.253906 L 287.1875 390.253906 L 287.1875 120.078125 L 407.265625 120.078125 C 415.671875 120.078125 422.273438 126.679688 422.273438 135.085938 Z M 422.273438 135.085938 " style=" stroke:none;fill-rule:nonzero;fill:rgb(100%,29.411765%,0%);fill-opacity:1;" />
<path d="M 407.265625 60.039062 L 167.109375 60.039062 C 142.191406 60.039062 122.078125 80.152344 122.078125 105.070312 L 122.078125 135.085938 C 122.078125 143.492188 128.683594 150.097656 137.089844 150.097656 L 437.285156 150.097656 C 445.691406 150.097656 452.292969 143.492188 452.292969 135.085938 L 452.292969 105.070312 C 452.292969 80.152344 432.179688 60.039062 407.265625 60.039062 Z M 407.265625 60.039062 " style=" stroke:none;fill-rule:nonzero;fill:rgb(100%,62.352941%,0%);fill-opacity:1;" />
<path d="M 452.292969 105.070312 L 452.292969 135.085938 C 452.292969 143.492188 445.691406 150.097656 437.285156 150.097656 L 287.1875 150.097656 L 287.1875 60.039062 L 407.265625 60.039062 C 432.179688 60.039062 452.292969 80.152344 452.292969 105.070312 Z M 452.292969 105.070312 " style=" stroke:none;fill-rule:nonzero;fill:rgb(100%,47.058824%,8.627451%);fill-opacity:1;" />
<path d="M 500.023438 354.53125 L 378.445312 441.285156 C 373.34375 444.589844 367.941406 446.691406 362.234375 448.191406 C 357.433594 449.691406 352.027344 450.292969 346.925781 450.292969 C 346.925781 450.292969 318.109375 450.292969 287.1875 450.292969 L 211.238281 450.292969 C 199.832031 450.292969 188.121094 447.589844 177.613281 442.484375 L 62.039062 384.550781 L 62.039062 210.136719 L 148.796875 210.136719 C 163.804688 210.136719 178.214844 214.636719 190.523438 222.742188 L 257.167969 267.171875 L 261.671875 270.175781 L 332.214844 270.175781 C 348.726562 270.175781 362.234375 283.683594 362.234375 300.195312 C 362.234375 316.707031 348.726562 330.214844 332.214844 330.214844 L 194.125 330.214844 C 185.71875 330.214844 179.117188 336.816406 179.117188 345.222656 C 179.117188 353.628906 185.421875 359.933594 193.828125 360.234375 L 365.835938 360.234375 C 368.238281 360.234375 370.640625 359.632812 373.042969 358.433594 L 464 306.496094 C 479.609375 295.089844 497.023438 300.496094 506.027344 312.5 C 515.933594 325.710938 513.234375 344.621094 500.023438 354.53125 Z M 500.023438 354.53125 " style=" stroke:none;fill-rule:nonzero;fill:rgb(100%,74.901961%,67.058824%);fill-opacity:1;" />
<path d="M 45.027344 420.273438 L 15.007812 420.273438 C 6.714844 420.273438 0 413.558594 0 405.261719 L 0 195.125 C 0 186.832031 6.714844 180.117188 15.007812 180.117188 L 45.027344 180.117188 C 69.859375 180.117188 92.058594 200.316406 92.058594 225.144531 L 92.058594 375.242188 C 92.058594 400.074219 69.859375 420.273438 45.027344 420.273438 Z M 45.027344 420.273438 " style=" stroke:none;fill-rule:nonzero;fill:rgb(29.019608%,41.176471%,43.529412%);fill-opacity:1;" />
<path d="M 347.226562 0 C 322.609375 0 300.996094 12.007812 287.1875 30.617188 C 273.375 12.007812 251.761719 0 227.148438 0 C 202.230469 0 182.117188 20.113281 182.117188 45.03125 C 182.117188 69.945312 202.230469 90.058594 227.148438 90.058594 L 272.175781 90.058594 L 272.175781 195.125 C 272.175781 203.53125 278.78125 210.136719 287.1875 210.136719 C 295.59375 210.136719 302.195312 203.53125 302.195312 195.125 L 302.195312 90.058594 L 347.226562 90.058594 C 372.140625 90.058594 392.253906 69.945312 392.253906 45.03125 C 392.253906 20.113281 372.140625 0 347.226562 0 Z M 227.148438 60.039062 C 218.742188 60.039062 212.136719 53.433594 212.136719 45.03125 C 212.136719 36.621094 218.742188 30.019531 227.148438 30.019531 C 246.660156 30.019531 263.472656 42.625 269.472656 60.039062 Z M 347.226562 60.039062 L 304.898438 60.039062 C 310.902344 42.625 327.710938 30.019531 347.226562 30.019531 C 355.632812 30.019531 362.234375 36.621094 362.234375 45.03125 C 362.234375 53.433594 355.632812 60.039062 347.226562 60.039062 Z M 347.226562 60.039062 " style=" stroke:none;fill-rule:nonzero;fill:rgb(100%,83.137255%,0%);fill-opacity:1;" />
<path d="M 347.226562 0 C 322.609375 0 300.996094 12.007812 287.1875 30.617188 L 287.1875 210.136719 C 295.59375 210.136719 302.195312 203.53125 302.195312 195.125 L 302.195312 90.058594 L 347.226562 90.058594 C 372.140625 90.058594 392.253906 69.945312 392.253906 45.03125 C 392.253906 20.113281 372.140625 0 347.226562 0 Z M 347.226562 60.039062 L 304.898438 60.039062 C 310.902344 42.625 327.710938 30.019531 347.226562 30.019531 C 355.632812 30.019531 362.234375 36.621094 362.234375 45.03125 C 362.234375 53.433594 355.632812 60.039062 347.226562 60.039062 Z M 347.226562 60.039062 " style=" stroke:none;fill-rule:nonzero;fill:rgb(99.215686%,74.901961%,0%);fill-opacity:1;" />
<path d="M 332.214844 330.214844 L 287.1875 330.214844 L 287.1875 270.175781 L 332.214844 270.175781 C 348.726562 270.175781 362.234375 283.683594 362.234375 300.195312 C 362.234375 316.707031 348.726562 330.214844 332.214844 330.214844 Z M 332.214844 330.214844 " style=" stroke:none;fill-rule:nonzero;fill:rgb(100%,65.490196%,56.078431%);fill-opacity:1;" />
<path d="M 500.023438 354.53125 L 378.445312 441.285156 C 373.34375 444.589844 367.941406 446.691406 362.234375 448.191406 C 357.433594 449.691406 352.027344 450.292969 346.925781 450.292969 C 346.925781 450.292969 318.109375 450.292969 287.1875 450.292969 L 287.1875 360.234375 L 365.839844 360.234375 C 368.242188 360.234375 370.640625 359.632812 373.042969 358.433594 L 464.003906 306.496094 C 479.613281 295.089844 497.023438 300.492188 506.027344 312.5 C 515.933594 325.710938 513.234375 344.621094 500.023438 354.53125 Z M 500.023438 354.53125 " style=" stroke:none;fill-rule:nonzero;fill:rgb(100%,65.490196%,56.078431%);fill-opacity:1;" />
</g>
</svg>