<svg xmlns="http://www.w3.org/2000/svg" height="512pt" version="1.1" viewBox="0 -76 512 512" width="512pt">
<g id="surface1">
<path d="M 512 180 L 482 195 L 512 210 L 512 315 C 512 339.898438 491.902344 360 467 360 L 331 360 L 316 330 L 301 360 L 45 360 C 20.097656 360 0 339.898438 0 315 L 0 210 L 30 195 L 0 180 L 0 45 C 0 20.097656 20.097656 0 45 0 L 301 0 L 316 30 L 331 0 L 467 0 C 491.902344 0 512 20.097656 512 45 Z M 512 180 " style=" stroke:none;fill-rule:nonzero;fill:rgb(100%,47.058824%,8.627451%);fill-opacity:1;" />
<path d="M 512 180 L 482 195 L 512 210 L 512 315 C 512 339.898438 491.902344 360 467 360 L 331 360 L 316 330 L 316 30 L 331 0 L 467 0 C 491.902344 0 512 20.097656 512 45 Z M 512 180 " style=" stroke:none;fill-rule:nonzero;fill:rgb(100%,29.411765%,0%);fill-opacity:1;" />
<path d="M 166 150 L 75 150 C 66.710938 150 60 143.289062 60 135 L 60 75 C 60 66.710938 66.710938 60 75 60 L 166 60 C 174.289062 60 181 66.710938 181 75 L 181 135 C 181 143.289062 174.289062 150 166 150 Z M 166 150 " style=" stroke:none;fill-rule:nonzero;fill:rgb(100%,89.411765%,43.921569%);fill-opacity:1;" />
<path d="M 512 180 L 412.597656 180 C 417.699219 171 421 161.101562 421 150 C 421 117 394 90 361 90 C 349.898438 90 340 93.300781 331 98.398438 L 331 0 L 301 0 L 301 98.398438 C 292 93.300781 282.101562 90 271 90 C 238 90 211 117 211 150 C 211 161.101562 214.300781 171 219.402344 180 L 0 180 L 0 210 L 279.699219 210 L 245.5 244.5 C 239.5 250.199219 239.5 259.800781 245.5 265.5 C 250.894531 271.5 261.101562 271.5 266.5 265.5 L 301 231.300781 L 301 360 L 331 360 L 331 231.300781 L 395.5 295.5 C 401.199219 301.5 410.800781 301.5 416.5 295.5 C 422.5 289.800781 422.5 280.199219 416.5 274.5 L 352.300781 210 L 512 210 Z M 301 180 L 271 180 C 254.5 180 241 166.5 241 150 C 241 133.5 254.5 120 271 120 C 287.5 120 301 133.5 301 150 Z M 361 180 L 331 180 L 331 150 C 331 133.5 344.5 120 361 120 C 377.5 120 391 133.5 391 150 C 391 166.5 377.5 180 361 180 Z M 361 180 " style=" stroke:none;fill-rule:nonzero;fill:rgb(100%,83.137255%,0%);fill-opacity:1;" />
<path d="M 512 180 L 412.597656 180 C 417.699219 171 421 161.101562 421 150 C 421 117 394 90 361 90 C 349.898438 90 340 93.300781 331 98.398438 L 331 0 L 316 0 L 316 360 L 331 360 L 331 231.300781 L 395.5 295.5 C 401.199219 301.5 410.800781 301.5 416.5 295.5 C 422.5 289.800781 422.5 280.199219 416.5 274.5 L 352.300781 210 L 512 210 Z M 361 180 L 331 180 L 331 150 C 331 133.5 344.5 120 361 120 C 377.5 120 391 133.5 391 150 C 391 166.5 377.5 180 361 180 Z M 361 180 " style=" stroke:none;fill-rule:nonzero;fill:rgb(99.215686%,74.901961%,0%);fill-opacity:1;" />
</g>
</svg>