<svg xmlns="http://www.w3.org/2000/svg" height="512pt" version="1.1" viewBox="0 -46 512 512" width="512pt">
<g id="surface1">
<path d="M 406.015625 180 C 401.445312 180 396.949219 177.933594 394.003906 173.992188 L 322.007812 77.988281 C 317.027344 71.367188 318.371094 61.964844 325.007812 56.996094 C 331.628906 52.015625 341.003906 53.335938 346 60 L 417.996094 156.007812 C 422.976562 162.628906 421.628906 172.03125 414.992188 176.996094 C 412.300781 179.019531 409.148438 180 406.015625 180 Z M 406.015625 180 " style=" stroke:none;fill-rule:nonzero;fill:rgb(21.960784%,28.627451%,28.627451%);fill-opacity:1;" />
<path d="M 105.984375 180 C 102.851562 180 99.699219 179.019531 97.007812 176.996094 C 90.371094 172.03125 89.023438 162.628906 94.003906 156.007812 L 166 60 C 170.980469 53.363281 180.371094 52.046875 186.992188 56.996094 C 193.628906 61.964844 194.972656 71.367188 189.992188 77.988281 L 117.996094 173.992188 C 115.054688 177.933594 110.554688 180 105.984375 180 Z M 105.984375 180 " style=" stroke:none;fill-rule:nonzero;fill:rgb(24.313725%,34.901961%,34.901961%);fill-opacity:1;" />
<path d="M 462.699219 240 L 426.097656 385.800781 C 421.300781 405.898438 403.300781 420 382.597656 420 L 129.402344 420 C 108.699219 420 90.699219 405.898438 85.902344 385.800781 L 49.300781 240 L 256 210 Z M 462.699219 240 " style=" stroke:none;fill-rule:nonzero;fill:rgb(100%,47.058824%,8.627451%);fill-opacity:1;" />
<path d="M 256 210 L 462.699219 240 L 426.097656 385.800781 C 421.300781 405.898438 403.300781 420 382.597656 420 L 256 420 Z M 256 210 " style=" stroke:none;fill-rule:nonzero;fill:rgb(100%,29.411765%,0%);fill-opacity:1;" />
<path d="M 480.398438 168.601562 L 462.699219 240 L 49.300781 240 L 31.601562 168.601562 Z M 480.398438 168.601562 " style=" stroke:none;fill-rule:nonzero;fill:rgb(99.215686%,74.901961%,0%);fill-opacity:1;" />
<path d="M 480.398438 168.601562 L 462.699219 240 L 256 240 L 256 168.601562 Z M 480.398438 168.601562 " style=" stroke:none;fill-rule:nonzero;fill:rgb(100%,62.352941%,0%);fill-opacity:1;" />
<path d="M 512 165 C 512 173.398438 505.402344 180 497 180 L 15 180 C 6.597656 180 0 173.398438 0 165 C 0 156.597656 6.597656 150 15 150 L 497 150 C 505.402344 150 512 156.597656 512 165 Z M 512 165 " style=" stroke:none;fill-rule:nonzero;fill:rgb(100%,29.411765%,0%);fill-opacity:1;" />
<path d="M 196 90 C 171.1875 90 151 69.8125 151 45 C 151 20.1875 171.1875 0 196 0 C 220.8125 0 241 20.1875 241 45 C 241 69.8125 220.8125 90 196 90 Z M 196 30 C 187.722656 30 181 36.722656 181 45 C 181 53.277344 187.722656 60 196 60 C 204.277344 60 211 53.277344 211 45 C 211 36.722656 204.277344 30 196 30 Z M 196 30 " style=" stroke:none;fill-rule:nonzero;fill:rgb(100%,29.411765%,0%);fill-opacity:1;" />
<path d="M 316 90 C 291.1875 90 271 69.8125 271 45 C 271 20.1875 291.1875 0 316 0 C 340.8125 0 361 20.1875 361 45 C 361 69.8125 340.8125 90 316 90 Z M 316 30 C 307.722656 30 301 36.722656 301 45 C 301 53.277344 307.722656 60 316 60 C 324.277344 60 331 53.277344 331 45 C 331 36.722656 324.277344 30 316 30 Z M 316 30 " style=" stroke:none;fill-rule:nonzero;fill:rgb(81.568627%,23.137255%,0%);fill-opacity:1;" />
<path d="M 271 270 L 271 360 C 271 368.398438 264.402344 375 256 375 C 247.597656 375 241 368.398438 241 360 L 241 270 C 241 261.597656 247.597656 255 256 255 C 264.402344 255 271 261.597656 271 270 Z M 271 270 " style=" stroke:none;fill-rule:nonzero;fill:rgb(100%,29.411765%,0%);fill-opacity:1;" />
<path d="M 346 375 C 337.710938 375 331 368.289062 331 360 L 331 270 C 331 261.710938 337.710938 255 346 255 C 354.289062 255 361 261.710938 361 270 L 361 360 C 361 368.289062 354.289062 375 346 375 Z M 346 375 " style=" stroke:none;fill-rule:nonzero;fill:rgb(81.568627%,23.137255%,0%);fill-opacity:1;" />
<path d="M 166 375 C 157.710938 375 151 368.289062 151 360 L 151 270 C 151 261.710938 157.710938 255 166 255 C 174.289062 255 181 261.710938 181 270 L 181 360 C 181 368.289062 174.289062 375 166 375 Z M 166 375 " style=" stroke:none;fill-rule:nonzero;fill:rgb(100%,29.411765%,0%);fill-opacity:1;" />
<path d="M 512 165 C 512 173.398438 505.402344 180 497 180 L 256 180 L 256 150 L 497 150 C 505.402344 150 512 156.597656 512 165 Z M 512 165 " style=" stroke:none;fill-rule:nonzero;fill:rgb(100%,29.411765%,0%);fill-opacity:1;" />
<path d="M 271 270 L 271 360 C 271 368.398438 264.402344 375 256 375 L 256 255 C 264.402344 255 271 261.597656 271 270 Z M 271 270 " style=" stroke:none;fill-rule:nonzero;fill:rgb(81.568627%,23.137255%,0%);fill-opacity:1;" />
</g>
</svg>