<svg xmlns="http://www.w3.org/2000/svg" height="512pt" version="1.1" viewBox="0 0 512.00035 512" width="512pt">
<g id="surface1">
<path d="M 464.777344 280.566406 C 473.261719 272.082031 477.71875 260.835938 477.929688 248.746094 L 477.929688 146.5 C 477.929688 144.375 477.71875 142.46875 477.292969 140.347656 C 476.65625 135.46875 485.988281 98.980469 483.867188 94.738281 C 481.746094 90.496094 468.382812 118.285156 464.777344 114.679688 L 397.320312 47.21875 C 390.320312 40.21875 381.410156 35.976562 371.652344 34.703125 C 369.53125 34.277344 367.621094 34.066406 365.5 34.066406 L 263.253906 34.066406 C 251.160156 34.277344 239.917969 38.734375 231.433594 47.21875 L 187.097656 91.554688 L 197.703125 123.375 L 165.882812 112.769531 L 13.152344 265.496094 C 4.667969 273.984375 0.214844 285.226562 0.00390625 297.316406 L 0 314.714844 C 0.214844 326.804688 4.667969 338.050781 13.152344 346.535156 L 165.464844 498.847656 C 173.949219 507.328125 185.191406 511.785156 197.285156 511.996094 L 214.679688 511.996094 C 226.769531 511.785156 238.011719 507.332031 246.5 498.84375 L 399.230469 346.113281 L 388.621094 314.292969 L 420.441406 324.902344 Z M 324.984375 187.015625 C 307.375 169.40625 307.378906 140.980469 324.984375 123.375 C 326.257812 122.101562 327.527344 120.828125 329.226562 119.980469 C 338.136719 112.769531 349.164062 109.371094 359.984375 110.433594 C 370.378906 111.070312 380.5625 115.3125 388.621094 123.375 C 406.230469 140.980469 406.230469 169.40625 388.621094 187.015625 C 371.015625 204.621094 342.589844 204.621094 324.984375 187.015625 Z M 324.984375 187.015625 " style=" stroke:none;fill-rule:nonzero;fill:rgb(100%,47.058824%,8.627451%);fill-opacity:1;" />
<path d="M 420.441406 324.902344 L 388.621094 314.292969 L 399.230469 346.113281 L 246.5 498.84375 C 238.011719 507.328125 226.769531 511.785156 214.679688 511.996094 L 197.285156 511.996094 C 185.191406 511.785156 173.949219 507.328125 165.464844 498.847656 L 89.308594 422.691406 L 324.984375 187.015625 C 342.589844 204.621094 371.015625 204.621094 388.621094 187.015625 C 406.230469 169.40625 406.230469 140.984375 388.621094 123.375 L 431.050781 80.949219 L 464.777344 114.679688 C 468.386719 118.285156 481.746094 90.496094 483.871094 94.738281 C 485.992188 98.980469 476.65625 135.46875 477.292969 140.347656 C 477.71875 142.46875 477.929688 144.378906 477.929688 146.5 L 477.929688 248.746094 C 477.71875 260.839844 473.261719 272.082031 464.777344 280.566406 Z M 420.441406 324.902344 " style=" stroke:none;fill-rule:nonzero;fill:rgb(100%,29.411765%,0%);fill-opacity:1;" />
<path d="M 261.34375 208.230469 L 240.128906 187.015625 C 234.265625 181.152344 234.265625 171.664062 240.128906 165.804688 C 245.992188 159.941406 255.480469 159.941406 261.34375 165.804688 L 282.554688 187.015625 C 288.417969 192.878906 288.417969 202.367188 282.554688 208.230469 C 276.691406 214.089844 267.207031 214.089844 261.34375 208.230469 Z M 261.34375 208.230469 " style=" stroke:none;fill-rule:nonzero;fill:rgb(100%,29.411765%,0%);fill-opacity:1;" />
<path d="M 324.984375 271.867188 L 303.769531 250.65625 C 297.90625 244.792969 297.90625 235.304688 303.769531 229.441406 C 309.632812 223.578125 319.121094 223.578125 324.984375 229.441406 L 346.195312 250.65625 C 352.058594 256.519531 352.058594 266.007812 346.195312 271.867188 C 340.332031 277.730469 330.84375 277.730469 324.984375 271.867188 Z M 324.984375 271.867188 " style=" stroke:none;fill-rule:nonzero;fill:rgb(81.568627%,23.137255%,0%);fill-opacity:1;" />
<path d="M 218.917969 144.589844 C 224.78125 138.726562 224.78125 129.238281 218.917969 123.375 L 187.097656 91.554688 L 165.882812 112.769531 L 197.703125 144.589844 C 203.566406 150.453125 213.054688 150.453125 218.917969 144.589844 Z M 218.917969 144.589844 " style=" stroke:none;fill-rule:nonzero;fill:rgb(100%,29.411765%,0%);fill-opacity:1;" />
<path d="M 388.621094 293.082031 C 382.757812 287.21875 373.269531 287.21875 367.410156 293.082031 C 361.546875 298.945312 361.546875 308.433594 367.410156 314.292969 L 399.230469 346.113281 L 420.441406 324.902344 Z M 388.621094 293.082031 " style=" stroke:none;fill-rule:nonzero;fill:rgb(81.568627%,23.137255%,0%);fill-opacity:1;" />
<path d="M 152.949219 274.199219 C 135.402344 256.652344 135.402344 228.105469 152.949219 210.558594 C 170.492188 193.011719 199.039062 193.011719 216.589844 210.558594 C 234.136719 228.105469 234.132812 256.652344 216.589844 274.199219 C 199.042969 291.746094 170.492188 291.742188 152.949219 274.199219 Z M 152.949219 274.199219 " style=" stroke:none;fill-rule:nonzero;fill:rgb(100%,83.137255%,0%);fill-opacity:1;" />
<path d="M 174.160156 422.691406 C 156.613281 405.144531 156.613281 376.597656 174.160156 359.050781 C 191.707031 341.503906 220.253906 341.503906 237.800781 359.050781 C 255.347656 376.597656 255.347656 405.144531 237.800781 422.691406 C 220.253906 440.234375 191.707031 440.234375 174.160156 422.691406 Z M 174.160156 422.691406 " style=" stroke:none;fill-rule:nonzero;fill:rgb(99.215686%,74.901961%,0%);fill-opacity:1;" />
<path d="M 292.53125 320.867188 L 178.402344 333.59375 L 101.613281 342.078125 C 93.339844 343.140625 85.914062 336.988281 85.066406 328.929688 C 84.003906 320.652344 90.15625 313.230469 98.21875 312.382812 L 212.34375 299.652344 L 289.136719 291.167969 C 297.410156 290.109375 304.835938 296.257812 305.683594 304.320312 C 306.746094 312.59375 300.59375 320.015625 292.53125 320.867188 Z M 292.53125 320.867188 " style=" stroke:none;fill-rule:nonzero;fill:rgb(100%,83.137255%,0%);fill-opacity:1;" />
<path d="M 292.53125 320.867188 L 178.402344 333.59375 L 212.34375 299.652344 L 289.136719 291.167969 C 297.410156 290.105469 304.835938 296.257812 305.683594 304.320312 C 306.746094 312.59375 300.59375 320.015625 292.53125 320.867188 Z M 292.53125 320.867188 " style=" stroke:none;fill-rule:nonzero;fill:rgb(99.215686%,74.901961%,0%);fill-opacity:1;" />
<path d="M 477.292969 140.347656 C 476.019531 130.585938 471.777344 121.679688 464.777344 114.679688 L 462.230469 112.132812 C 483.019531 85.402344 488.535156 53.585938 473.476562 38.523438 C 458.414062 23.460938 426.59375 28.976562 399.867188 49.765625 C 396.046875 52.734375 392.226562 56.132812 388.621094 59.738281 C 373.347656 75.011719 362.953125 93.46875 359.984375 110.4375 C 358.710938 115.953125 358.5 121.253906 359.136719 126.136719 C 360.199219 134.40625 354.257812 142.042969 345.984375 142.679688 C 341.105469 143.316406 336.863281 141.621094 333.679688 138.4375 C 331.347656 136.105469 329.648438 133.136719 329.4375 129.527344 C 329.011719 126.558594 328.800781 123.378906 329.226562 119.984375 C 329.226562 93.253906 343.4375 62.496094 367.410156 38.523438 C 368.683594 37.25 370.167969 35.765625 371.652344 34.707031 C 412.59375 -3.6875 466.050781 -11.324219 494.6875 17.3125 C 523.324219 45.945312 515.6875 99.40625 477.292969 140.347656 Z M 477.292969 140.347656 " style=" stroke:none;fill-rule:nonzero;fill:rgb(88.627451%,88.627451%,90.588235%);fill-opacity:1;" />
<path d="M 477.292969 140.347656 C 476.019531 130.585938 471.777344 121.679688 464.777344 114.679688 L 462.230469 112.132812 C 483.019531 85.402344 488.535156 53.585938 473.476562 38.523438 L 494.6875 17.308594 C 523.324219 45.945312 515.6875 99.40625 477.292969 140.347656 Z M 477.292969 140.347656 " style=" stroke:none;fill-rule:nonzero;fill:rgb(72.941176%,72.941176%,75.294118%);fill-opacity:1;" />
</g>
</svg>