<svg xmlns="http://www.w3.org/2000/svg" height="777pt" version="1.1" viewBox="0 -7 777.50099 777" width="777pt">
<g id="surface1">
<path d="M 663.15625 173.992188 C 663.15625 169.113281 660.316406 164.683594 655.882812 162.648438 L 393.886719 42.570312 C 390.585938 41.058594 386.792969 41.058594 383.480469 42.570312 L 121.492188 162.648438 C 117.058594 164.683594 114.214844 169.113281 114.214844 173.992188 L 114.214844 374.546875 C 114.445312 501.558594 188.46875 616.863281 303.847656 669.960938 L 383.539062 706.480469 C 386.839844 707.992188 390.632812 707.992188 393.945312 706.480469 L 473.527344 669.960938 C 588.917969 616.863281 662.929688 501.550781 663.15625 374.53125 Z M 638.203125 374.53125 C 638.015625 491.792969 569.703125 598.261719 463.179688 647.292969 L 388.683594 681.445312 L 314.195312 647.292969 C 207.679688 598.261719 139.359375 491.796875 139.164062 374.546875 L 139.164062 181.992188 L 388.683594 67.625 L 638.203125 181.992188 Z M 638.203125 374.53125 " style=" stroke:none;fill-rule:nonzero;fill:rgb(0%,0%,0%);fill-opacity:1;" />
<path d="M 773.78125 618.472656 L 671.480469 516.09375 C 690.628906 471.351562 700.527344 423.203125 700.582031 374.53125 L 700.582031 149.96875 C 700.582031 145.085938 697.746094 140.660156 693.308594 138.621094 L 393.886719 1.386719 C 390.585938 -0.128906 386.792969 -0.128906 383.480469 1.386719 L 84.058594 138.621094 C 79.632812 140.660156 76.785156 145.085938 76.785156 149.96875 L 76.785156 374.53125 C 76.867188 423.203125 86.789062 471.355469 105.960938 516.09375 L 3.65625 618.472656 C 0.511719 621.617188 -0.726562 626.195312 0.417969 630.496094 C 1.5625 634.796875 4.90625 638.160156 9.191406 639.332031 L 99.378906 663.898438 L 123.949219 754.085938 C 125.132812 758.359375 128.492188 761.683594 132.78125 762.8125 C 133.832031 763.09375 134.910156 763.230469 135.984375 763.230469 C 139.292969 763.230469 142.464844 761.914062 144.804688 759.578125 L 232.542969 671.84375 C 250.125 684.1875 268.769531 694.933594 288.265625 703.957031 L 383.550781 747.621094 C 386.851562 749.136719 390.648438 749.136719 393.953125 747.621094 L 489.230469 703.957031 C 508.730469 694.933594 527.375 684.1875 544.960938 671.84375 L 632.691406 759.578125 C 635.027344 761.914062 638.203125 763.230469 641.511719 763.230469 C 642.59375 763.230469 643.671875 763.09375 644.714844 762.8125 C 649.007812 761.683594 652.367188 758.359375 653.550781 754.085938 L 678.113281 663.898438 L 768.308594 639.332031 C 772.59375 638.160156 775.9375 634.796875 777.082031 630.496094 C 778.222656 626.195312 776.992188 621.617188 773.839844 618.472656 Z M 142.308594 726.777344 L 121.515625 650.460938 C 120.347656 646.214844 117.027344 642.894531 112.78125 641.730469 L 36.441406 620.898438 L 117.234375 540.113281 C 140.453125 585.199219 172.84375 624.9375 212.316406 656.769531 Z M 478.777344 681.324219 L 388.683594 722.609375 L 298.597656 681.324219 C 178.800781 626.164062 101.964844 506.421875 101.738281 374.53125 L 101.738281 157.96875 L 388.683594 26.449219 L 675.632812 157.96875 L 675.632812 374.53125 C 675.414062 506.421875 598.574219 626.164062 478.777344 681.324219 Z M 664.667969 641.699219 C 660.421875 642.871094 657.101562 646.191406 655.933594 650.4375 L 635.140625 726.753906 L 565.132812 656.746094 C 604.613281 624.914062 636.996094 585.175781 660.210938 540.082031 L 741.007812 620.878906 Z M 664.667969 641.699219 " style=" stroke:none;fill-rule:nonzero;fill:rgb(0%,0%,0%);fill-opacity:1;" />
<path d="M 272.898438 216.484375 L 248.230469 241.148438 C 245.699219 243.695312 244.375 247.207031 244.617188 250.789062 C 244.859375 254.371094 246.632812 257.683594 249.480469 259.863281 L 355.039062 339.84375 L 298.300781 398.335938 L 235.496094 374.714844 C 230.914062 372.964844 225.734375 374.082031 222.28125 377.558594 L 210.03125 389.796875 C 207.480469 392.351562 206.164062 395.882812 206.410156 399.484375 C 206.664062 403.082031 208.460938 406.40625 211.339844 408.574219 L 272.234375 454.546875 L 282.492188 464.757812 L 327.300781 524.542969 C 329.46875 527.441406 332.789062 529.265625 336.398438 529.53125 L 337.289062 529.53125 C 340.597656 529.53125 343.773438 528.214844 346.109375 525.875 L 358.359375 513.613281 C 361.796875 510.179688 362.925781 505.0625 361.253906 500.496094 L 338.632812 438.769531 L 397.097656 382.039062 L 476.121094 486.34375 C 478.296875 489.210938 481.609375 491.007812 485.203125 491.257812 C 488.792969 491.449219 492.304688 490.132812 494.882812 487.625 L 519.476562 463.046875 C 523.046875 459.476562 524.113281 454.109375 522.175781 449.449219 L 467.160156 316.703125 L 517.300781 273.035156 C 518.070312 272.394531 518.8125 271.710938 519.511719 270.988281 C 530.699219 259.8125 533.921875 242.917969 527.625 228.402344 C 521.332031 213.894531 506.804688 204.703125 490.992188 205.230469 C 480.304688 205.59375 470.246094 210.375 463.203125 218.417969 L 419.304688 268.835938 L 286.496094 213.777344 C 281.832031 211.867188 276.476562 212.929688 272.898438 216.484375 Z M 432.203125 291.941406 L 481.980469 234.777344 C 484.453125 231.914062 488.019531 230.21875 491.800781 230.121094 C 495.570312 229.910156 499.25 231.355469 501.871094 234.074219 C 504.429688 236.628906 505.851562 240.097656 505.832031 243.703125 C 505.773438 247.609375 504.09375 251.320312 501.191406 253.9375 L 444.003906 303.789062 C 439.964844 307.308594 438.621094 313.023438 440.671875 317.976562 L 495.980469 451.34375 L 487.40625 459.917969 L 408.511719 355.789062 C 406.359375 352.945312 403.085938 351.152344 399.527344 350.875 C 395.957031 350.570312 392.433594 351.847656 389.882812 354.371094 L 315.863281 426.203125 C 312.058594 429.609375 310.722656 434.984375 312.46875 439.785156 L 329.1875 485.464844 L 301.933594 449.140625 C 301.578125 448.664062 301.195312 448.21875 300.78125 447.800781 L 290.015625 437.046875 C 289.457031 436.398438 288.828125 435.820312 288.144531 435.3125 L 250.890625 407.1875 L 297.199219 424.65625 C 301.894531 426.429688 307.195312 425.207031 310.652344 421.5625 L 382.796875 347.191406 C 385.289062 344.632812 386.566406 341.128906 386.289062 337.558594 C 386.019531 333.992188 384.238281 330.710938 381.390625 328.558594 L 275.996094 248.707031 L 284.640625 240.078125 L 418.015625 295.375 C 422.996094 297.402344 428.707031 296.015625 432.203125 291.941406 Z M 432.203125 291.941406 " style=" stroke:none;fill-rule:nonzero;fill:rgb(0%,0%,0%);fill-opacity:1;" />
</g>
</svg>